<svg id="visual" viewBox="0 0 900 600" width="900" height="600" xmlns="http://www.w3.org/2000/svg" xmlns:xlink="http://www.w3.org/1999/xlink" version="1.1"><rect x="0" y="0" width="900" height="600" fill="#f3efef"></rect><path d="M0 179L12.5 179C25 179 50 179 75 179C100 179 125 179 150 179C175 179 200 179 225 179C250 179 275 179 300 179C325 179 350 179 375 179C400 179 425 179 450 179C475 179 500 179 525 179C550 179 575 179 600 179C625 179 650 179 675 179C700 179 725 179 750 179C775 179 800 179 825 179C850 179 875 179 887.5 179L900 179L900 0L887.5 0C875 0 850 0 825 0C800 0 775 0 750 0C725 0 700 0 675 0C650 0 625 0 600 0C575 0 550 0 525 0C500 0 475 0 450 0C425 0 400 0 375 0C350 0 325 0 300 0C275 0 250 0 225 0C200 0 175 0 150 0C125 0 100 0 75 0C50 0 25 0 12.5 0L0 0Z" fill="#18181b" stroke-linecap="round" stroke-linejoin="miter"></path></svg>